# xmcd CD database file
#
# Track frame offsets:
#	150
#	20700
#	31704
#	41572
#	54991
#	65030
#	76692
#	90412
#	102713
#	114792
#	124510
#	134769
#	147886
#	162143
#	176398
#	188022
#	201725
#	213281
#	224520
#	237377
#
# Disc length: 3311 seconds
#
# Revision: 6
# Processed by: cddbd v1.5.2PL0 Copyright (c) Steve Scherf et al.
# Submitted via: CDex 1.95
#
DISCID=1b0ced14
DTITLE=Various Artist - Golden Country Hits Vol23 Cd1
DYEAR=1999
DGENRE=Oldies
TTITLE0=Barbar Fairchild - Tip Of My Fingers
TTITLE1=Bob Wills - You Can't Break A Heart
TTITLE2=Conway Twitty - Where I Stand
TTITLE3=Faron Young - This Little Girl Of Mine
TTITLE4=Freddy Fender - Wasted Days And Wasted Nights
TTITLE5=George Jones - You Comb Her Hair
TTITLE6=Hoyt Axton - Lion In Winter
TTITLE7=Johnny Paycheck - She Thinks I Still Care
TTITLE8=Mickey Gilley - Turn Around
TTITLE9=Oak Ridge Boys - Until Then
TTITLE10=Patsy Cline - Too Many Secrets
TTITLE11=Razzy Bailey - Poor Boy
TTITLE12=Rebecca Holden - This World Needs A Rehearsal
TTITLE13=Texas Radio - Time To Go Home
TTITLE14=Mickey Gilley - Still Care About You
TTITLE15=Oak Ridge Boys - Angels Must Have Cried
TTITLE16=Patsy Cline - Let The Teardrops Fall
TTITLE17=Porter Wagoner - Enough To Make A Grown Man
TTITLE18=Razzy Bailey - I'm Surviving
TTITLE19=Ronnie McDowell - She's My Saturday Night Special
EXTD=Disc 45 of 50 YEAR: 1999
EXTT0=
EXTT1=
EXTT2=
EXTT3=
EXTT4=
EXTT5=
EXTT6=
EXTT7=
EXTT8=
EXTT9=
EXTT10=
EXTT11=
EXTT12=
EXTT13=
EXTT14=
EXTT15=
EXTT16=
EXTT17=
EXTT18=
EXTT19=
PLAYORDER=
